<?xml version="1.0" standalone="no"?>
<!DOCTYPE svg PUBLIC "-//W3C//DTD SVG 20010904//EN"
 "http://www.w3.org/TR/2001/REC-SVG-20010904/DTD/svg10.dtd">
<svg version="1.0" xmlns="http://www.w3.org/2000/svg"
 width="300.000000pt" height="300.000000pt" viewBox="0 0 300.000000 300.000000"
 preserveAspectRatio="xMidYMid meet">
<metadata>
Created by potrace 1.10, written by Peter Selinger 2001-2011
</metadata>
<g transform="translate(0.000000,300.000000) scale(0.100000,-0.100000)"
fill="#bc1a20" stroke="none">
<path d="M1276 2734 c-374 -68 -707 -314 -885 -654 -97 -185 -141 -365 -141
-575 0 -256 66 -479 203 -687 497 -757 1597 -757 2094 0 209 317 262 720 142
1077 -146 435 -524 761 -973 840 -110 19 -332 18 -440 -1z m439 -60 c352 -60
676 -299 844 -623 90 -174 132 -346 132 -552 0 -324 -119 -611 -350 -839 -159
-159 -330 -257 -549 -317 -89 -24 -112 -27 -292 -27 -179 0 -203 2 -290 26
-217 59 -394 160 -551 317 -231 230 -350 516 -350 840 0 206 41 376 134 556
167 321 494 561 847 620 159 27 268 27 425 -1z"/>
<path d="M1443 2578 c2 -64 0 -73 -17 -76 -29 -6 -46 25 -46 85 0 47 -2 53
-21 53 -20 0 -21 -3 -14 -67 8 -78 25 -103 70 -103 61 0 71 19 67 128 -2 44
-5 52 -22 52 -17 0 -19 -7 -17 -72z"/>
<path d="M1586 2618 c-16 -91 -18 -136 -6 -143 17 -11 22 -1 30 62 6 53 7 56
17 32 6 -14 17 -44 24 -67 9 -33 17 -42 34 -42 21 0 23 6 29 68 4 37 10 75 12
85 4 12 0 17 -14 17 -16 0 -21 -10 -27 -62 l-7 -63 -22 63 c-19 56 -37 81 -57
82 -4 0 -9 -15 -13 -32z"/>
<path d="M1825 2588 c-21 -60 -43 -143 -39 -150 3 -4 11 -8 17 -8 14 0 61 146
52 160 -9 14 -25 12 -30 -2z"/>
<path d="M1073 2558 c2 -7 15 -42 27 -78 13 -36 25 -67 26 -69 8 -9 94 23 94
35 0 16 -10 17 -43 5 -24 -9 -26 -7 -48 55 -17 49 -27 64 -42 64 -11 0 -17 -5
-14 -12z"/>
<path d="M1947 2552 c-3 -4 -8 -38 -12 -76 -4 -38 -9 -75 -12 -82 -2 -7 5 -15
17 -19 17 -5 34 5 85 54 52 50 60 63 47 70 -12 7 -27 -4 -64 -43 l-49 -51 6
35 c17 104 17 107 1 113 -8 3 -17 3 -19 -1z"/>
<path d="M906 2482 c-2 -4 13 -40 35 -80 l40 -72 39 20 c21 11 41 24 44 29 12
18 -15 23 -39 7 -24 -16 -25 -16 -55 36 -16 29 -30 56 -30 61 0 9 -27 9 -34
-1z"/>
<path d="M1320 2425 c-349 -70 -620 -320 -727 -670 -25 -83 -27 -103 -27 -255
0 -150 3 -173 27 -253 52 -170 133 -302 258 -423 91 -86 146 -124 254 -175
142 -67 217 -82 395 -82 178 0 253 15 395 82 108 51 163 89 254 175 125 121
206 254 257 423 24 78 27 105 28 243 1 122 -3 171 -18 230 -93 366 -377 636
-744 706 -90 17 -264 17 -352 -1z m358 -61 c319 -65 582 -312 674 -631 31
-106 33 -341 4 -448 -22 -83 -82 -215 -125 -278 -114 -166 -290 -294 -486
-353 -81 -25 -105 -28 -245 -28 -140 0 -163 3 -245 28 -243 74 -438 239 -545
461 -71 149 -85 211 -85 390 0 125 4 163 23 228 91 316 353 563 667 630 94 20
267 21 363 1z"/>
<path d="M900 1708 c0 -489 2 -507 72 -640 72 -140 244 -299 428 -397 99 -52
113 -51 231 20 199 119 332 248 403 390 64 126 67 160 64 639 l-3 415 -597 3
-598 2 0 -432z m1140 152 l0 -220 -540 0 -540 0 0 220 0 220 540 0 540 0 0
-220z m-564 -311 l3 -36 -52 1 c-29 0 -101 -3 -162 -6 l-110 -7 -1 -38 c-1
-35 -3 -38 -27 -35 -25 3 -27 0 -27 -37 0 -37 2 -40 26 -38 25 2 27 -1 27 -43
0 -43 -2 -45 -27 -42 -24 3 -26 0 -26 -38 0 -39 2 -41 26 -38 25 3 27 0 28
-35 1 -34 -1 -37 -26 -37 -25 0 -28 -3 -28 -35 0 -32 3 -35 28 -35 26 0 27 -2
24 -45 -3 -34 0 -46 12 -51 9 -3 77 -2 152 3 99 6 138 5 145 -3 9 -10 19 -254
11 -254 -2 0 -34 18 -70 39 -202 118 -352 274 -413 429 -20 50 -23 80 -27 239
l-4 182 258 -2 258 -2 2 -36z m562 -141 c-4 -158 -8 -191 -27 -239 -59 -152
-199 -299 -402 -423 -42 -25 -79 -46 -83 -46 -3 0 -6 53 -6 117 0 151 -1 150
122 141 51 -3 117 -7 146 -7 l52 -1 0 50 c0 49 1 50 30 50 28 0 30 3 30 35 0
32 -2 35 -30 35 -28 0 -30 3 -30 35 0 32 2 35 30 35 28 0 30 2 30 41 0 40 0
40 -30 34 l-30 -7 0 52 0 53 30 -6 c29 -6 30 -6 30 34 0 40 0 41 -31 34 l-31
-7 3 42 3 42 -109 6 c-61 3 -134 6 -163 6 l-52 1 0 38 0 37 261 0 261 0 -4
-182z m-525 77 c1 -5 -6 -11 -15 -13 -11 -2 -18 3 -18 13 0 17 30 18 33 0z
m-40 -248 l2 -217 -65 0 c-36 0 -95 -3 -132 -6 l-68 -6 0 221 0 220 88 4 c48
2 106 3 130 3 l43 -1 2 -218z m252 213 l60 0 0 -221 0 -221 -70 6 c-38 3 -98
6 -132 6 l-63 0 0 213 c0 118 3 217 8 221 4 5 36 5 72 2 36 -3 92 -6 125 -6z
m-205 -466 c0 -8 -9 -14 -20 -14 -19 0 -27 19 -14 33 10 9 34 -4 34 -19z m-5
-304 c3 -6 -1 -13 -10 -16 -19 -8 -30 0 -20 15 8 14 22 14 30 1z"/>
<path d="M1049 2043 c0 -5 0 -64 1 -133 1 -112 3 -127 22 -147 24 -25 133 -93
151 -93 26 0 148 83 162 110 11 21 15 62 15 150 l0 120 -175 0 c-96 0 -175 -3
-176 -7z m291 -78 l0 -25 -120 0 -120 0 0 25 0 25 120 0 120 0 0 -25z m-2
-122 c-3 -33 -10 -42 -58 -75 l-54 -36 -39 21 c-62 35 -87 63 -87 97 l0 30
121 0 120 0 -3 -37z"/>
<path d="M1600 1926 c0 -118 1 -126 25 -154 13 -16 53 -46 87 -67 l63 -37 55
28 c30 16 70 42 87 58 l33 28 0 134 0 134 -175 0 -175 0 0 -124z m296 15 l1
-50 -58 40 c-32 21 -61 39 -65 39 -4 0 -29 -16 -55 -35 -27 -19 -51 -35 -54
-35 -3 0 -5 20 -5 45 l0 45 118 0 117 0 1 -49z m-61 -67 c32 -22 55 -44 55
-55 0 -10 -22 -31 -57 -52 l-57 -35 -58 39 c-32 22 -58 46 -58 53 0 12 95 84
113 85 4 1 32 -15 62 -35z"/>
<path d="M1323 1393 c-47 -3 -63 -8 -63 -18 0 -12 17 -15 80 -15 73 0 80 2 80
20 0 13 -6 19 -17 18 -10 -1 -46 -3 -80 -5z"/>
<path d="M1335 1301 c-53 -5 -70 -10 -70 -21 0 -8 8 -15 18 -14 9 0 44 1 77 2
53 2 60 4 60 22 0 11 -3 19 -7 18 -5 -1 -39 -4 -78 -7z"/>
<path d="M1293 1202 c-21 -2 -33 -9 -33 -18 0 -10 13 -14 49 -14 68 0 111 10
111 26 0 14 -33 16 -127 6z"/>
<path d="M1322 1113 c-50 -3 -63 -7 -60 -19 2 -8 6 -15 11 -15 4 1 39 1 77 1
63 0 70 2 70 20 0 13 -6 19 -17 18 -10 -1 -46 -3 -81 -5z"/>
<path d="M1572 1383 c3 -15 15 -18 81 -21 64 -2 77 0 77 13 0 11 -11 15 -42
15 -24 1 -60 3 -81 6 -34 5 -38 3 -35 -13z"/>
<path d="M1570 1290 c0 -14 12 -17 93 -24 63 -6 67 -5 67 14 0 18 -6 20 -80
20 -48 0 -80 -4 -80 -10z"/>
<path d="M1570 1196 c0 -16 43 -26 111 -26 35 0 49 4 49 14 0 9 -20 15 -61 20
-87 9 -99 8 -99 -8z"/>
<path d="M1575 1110 c-12 -20 7 -28 83 -32 64 -3 72 -2 72 14 0 15 -9 18 -52
18 -29 0 -63 3 -74 6 -12 3 -25 0 -29 -6z"/>
<path d="M2112 2366 l-51 -64 40 -32 c29 -23 44 -29 52 -21 7 7 3 16 -16 31
-22 18 -25 25 -16 41 10 19 10 19 38 -1 24 -16 30 -17 34 -6 4 9 -5 21 -20 31
-23 16 -24 18 -9 33 14 15 18 14 39 -6 17 -16 26 -19 35 -10 8 8 2 18 -25 39
-20 16 -39 29 -43 29 -3 0 -29 -29 -58 -64z"/>
<path d="M769 2387 l-36 -31 50 -61 c27 -33 53 -61 57 -63 3 -1 23 10 42 26
26 20 34 33 28 42 -7 12 -14 10 -35 -10 -25 -23 -25 -23 -39 -4 -13 17 -12 21
11 40 19 15 23 23 14 28 -7 5 -20 1 -30 -8 -22 -20 -37 -20 -44 -1 -4 8 4 22
17 32 12 10 21 24 18 31 -5 17 -13 15 -53 -21z"/>
<path d="M2255 2245 c-47 -43 -57 -57 -47 -67 9 -9 17 -7 37 12 35 33 51 11
24 -33 -13 -23 -15 -34 -7 -44 17 -21 24 -16 38 27 10 29 18 39 28 35 18 -7
52 22 52 43 0 17 -47 82 -58 82 -4 -1 -34 -25 -67 -55z m84 -31 c-8 -10 -16
-11 -31 -3 -19 10 -19 11 -2 30 17 19 19 19 31 3 9 -13 10 -21 2 -30z"/>
<path d="M641 2266 c-9 -11 -1 -21 39 -52 27 -21 48 -39 47 -40 -1 -2 -32 6
-69 16 -65 18 -89 14 -87 -14 1 -15 125 -117 133 -109 14 15 3 32 -41 67 -53
41 -52 42 30 20 54 -14 61 -14 76 0 9 10 11 19 6 24 -101 87 -123 102 -134 88z"/>
<path d="M2410 2100 c-16 -16 -19 -28 -14 -54 3 -21 1 -36 -6 -41 -15 -9 -40
13 -40 37 0 22 -23 19 -28 -3 -4 -23 37 -69 62 -69 33 0 46 19 46 67 0 49 23
60 41 19 7 -14 17 -22 25 -19 20 7 18 17 -12 52 -30 36 -46 39 -74 11z"/>
<path d="M493 2048 c-27 -30 -45 -66 -36 -71 140 -78 140 -77 153 -62 10 12 6
17 -24 31 -46 22 -33 45 21 37 24 -4 38 -2 44 8 9 16 -11 27 -50 28 -13 1 -32
12 -43 26 -24 31 -39 31 -65 3z m47 -43 c0 -26 -14 -31 -39 -16 -12 8 -12 12
-2 25 20 24 41 19 41 -9z"/>
<path d="M2476 1919 c-81 -34 -83 -36 -68 -51 8 -8 24 -5 61 11 27 11 61 25
75 31 17 6 24 14 20 25 -8 19 -5 19 -88 -16z"/>
<path d="M434 1860 c-42 -17 -65 -71 -48 -115 8 -21 56 -45 89 -45 40 0 62 16
75 54 9 28 8 40 -4 65 -20 37 -73 57 -112 41z m76 -50 c24 -24 25 -38 3 -62
-20 -22 -35 -23 -73 -3 -32 16 -40 51 -18 73 19 19 66 14 88 -8z"/>
<path d="M2577 1834 c-4 -4 -4 -17 -1 -30 5 -20 1 -23 -53 -35 -74 -16 -84
-21 -74 -38 8 -12 19 -12 72 2 69 17 79 15 79 -14 0 -19 14 -26 24 -11 6 11
-24 132 -34 132 -3 0 -10 -3 -13 -6z"/>
<path d="M345 1607 c-7 -28 10 -76 33 -93 9 -8 36 -14 59 -14 33 0 46 5 62 26
25 31 28 89 6 98 -12 4 -15 -3 -15 -29 0 -58 -60 -85 -101 -44 -16 16 -20 29
-15 50 7 36 -20 42 -29 6z"/>
<path d="M2591 1600 c-22 -17 -49 -30 -58 -30 -10 0 -28 -3 -40 -6 -35 -9 -16
-34 26 -34 20 0 55 -11 80 -25 52 -30 51 -30 51 -6 0 13 -11 24 -35 32 -19 7
-35 16 -35 19 0 3 16 14 35 24 34 18 45 39 26 50 -5 3 -27 -8 -50 -24z"/>
<path d="M2442 1242 c-17 -56 -16 -58 27 -70 50 -15 51 -15 51 7 0 10 7 24 16
31 12 11 18 11 30 -2 13 -13 14 -20 4 -38 -10 -18 -9 -24 1 -31 10 -6 18 0 28
24 11 27 11 36 -1 57 -19 34 -78 36 -93 2 -11 -26 -41 -25 -37 1 1 9 3 24 5
33 5 35 -20 23 -31 -14z"/>
<path d="M451 1250 c-73 -22 -76 -24 -68 -44 5 -13 12 -14 33 -5 35 13 54 5
54 -21 0 -12 7 -20 16 -20 13 0 15 7 10 35 -6 30 -4 35 12 35 13 0 22 -9 26
-25 4 -14 14 -25 22 -25 11 0 14 5 9 18 -3 9 -9 29 -12 45 -6 32 -15 32 -102
7z"/>
<path d="M510 1102 c-49 -24 -65 -61 -46 -107 26 -62 91 -71 142 -20 31 31 31
76 2 109 -32 34 -57 39 -98 18z m78 -34 c19 -19 14 -55 -10 -72 -51 -36 -114
-4 -88 44 20 37 74 52 98 28z"/>
<path d="M2386 1089 c-22 -32 -20 -62 7 -86 55 -50 107 -57 134 -17 15 23 15
29 2 52 -8 14 -24 28 -35 33 -28 10 -64 -15 -64 -43 0 -17 -2 -18 -15 -8 -18
15 -19 42 -3 58 9 9 9 15 1 23 -8 8 -15 4 -27 -12z m114 -64 c6 -8 9 -19 5
-25 -14 -23 -62 -2 -52 24 8 20 31 21 47 1z"/>
<path d="M2302 934 c-50 -35 -48 -94 3 -94 15 0 25 -6 25 -14 0 -8 10 -22 21
-30 28 -19 63 -4 80 36 10 24 9 31 -7 49 -12 13 -27 19 -41 16 -17 -3 -23 0
-23 14 0 28 -33 41 -58 23z m36 -47 c2 -12 -3 -17 -17 -17 -15 0 -21 6 -21 21
0 25 33 22 38 -4z m62 -32 c13 -16 6 -35 -15 -35 -18 0 -28 17 -21 35 7 19 20
19 36 0z"/>
<path d="M640 894 c-51 -40 -60 -52 -60 -77 0 -22 52 -77 72 -77 19 0 123 78
123 92 0 23 -23 17 -66 -17 -50 -39 -74 -44 -89 -16 -8 17 -2 26 41 64 29 25
48 50 45 56 -10 16 -16 14 -66 -25z"/>
<path d="M2193 808 c-6 -7 -14 -28 -18 -45 -5 -26 -3 -33 9 -33 9 0 16 7 16
15 0 25 17 17 58 -30 35 -40 41 -43 53 -29 11 13 4 24 -47 75 -48 47 -63 57
-71 47z"/>
<path d="M777 709 c-28 -35 -46 -66 -43 -75 9 -23 19 -16 56 35 19 27 36 48
38 46 2 -1 -4 -31 -13 -65 -15 -58 -15 -64 0 -79 15 -15 19 -13 51 24 66 76
75 92 61 104 -10 8 -22 -1 -51 -39 -21 -28 -40 -50 -41 -50 -2 0 3 24 11 53
18 68 18 93 -2 101 -20 7 -11 14 -67 -55z"/>
<path d="M965 570 c-19 -38 -35 -72 -35 -74 0 -11 63 -37 90 -38 36 -1 59 17
77 59 17 43 3 74 -47 102 -21 11 -40 21 -44 21 -3 0 -22 -31 -41 -70z m87 13
c22 -20 23 -42 2 -71 -14 -21 -62 -31 -77 -16 -7 7 40 104 50 104 3 0 15 -7
25 -17z"/>
<path d="M1945 624 c-49 -25 -49 -29 -10 -101 21 -37 39 -70 41 -72 8 -9 86
52 94 74 11 29 0 65 -30 95 -24 24 -54 25 -95 4z m71 -37 c21 -19 26 -29 20
-50 -3 -15 -15 -31 -26 -37 -17 -9 -22 -5 -45 39 -23 47 -24 51 -7 60 24 15
28 14 58 -12z"/>
<path d="M2122 577 c-15 -17 0 -39 21 -31 21 8 22 18 3 33 -10 8 -16 8 -24 -2z"/>
<path d="M1195 547 c-2 -7 -12 -44 -23 -83 l-19 -71 43 -11 c57 -15 64 -15 64
2 0 8 -15 17 -35 20 -30 6 -33 9 -26 29 9 23 12 24 49 12 16 -5 22 -2 22 10 0
9 -12 18 -29 21 -22 5 -27 10 -24 25 4 13 13 18 37 16 48 -3 43 16 -9 29 -35
9 -47 9 -50 1z"/>
<path d="M1683 528 c-10 -13 -36 -168 -30 -175 10 -9 37 11 37 27 0 26 59 39
75 16 13 -17 45 -22 45 -7 0 15 -92 146 -104 149 -7 2 -17 -3 -23 -10z m51
-90 c-3 -4 -13 -8 -23 -8 -14 0 -16 7 -13 36 l4 36 19 -28 c10 -15 16 -31 13
-36z"/>
<path d="M1367 484 c-4 -22 -7 -60 -7 -86 l0 -48 53 0 c62 0 85 17 93 72 8 49
-26 86 -87 94 l-46 6 -6 -38z m85 -11 c27 -24 23 -69 -7 -89 -39 -26 -50 -14
-47 50 4 61 18 71 54 39z"/>
<path d="M1863 442 c-17 -11 1 -36 21 -29 9 4 13 13 10 22 -7 17 -13 18 -31 7z"/>
</g>
</svg>
