<?xml version="1.0" standalone="no"?>
<!DOCTYPE svg PUBLIC "-//W3C//DTD SVG 20010904//EN"
 "http://www.w3.org/TR/2001/REC-SVG-20010904/DTD/svg10.dtd">
<svg version="1.0" xmlns="http://www.w3.org/2000/svg"
 width="900.000000pt" height="396.000000pt" viewBox="0 0 900.000000 396.000000"
 preserveAspectRatio="xMidYMid meet">
<metadata>
Created by potrace 1.10, written by Peter Selinger 2001-2011
</metadata>
<g transform="translate(0.000000,396.000000) scale(0.100000,-0.100000)"
fill="#33386f" stroke="none">
<path d="M3680 3061 c-103 -21 -153 -38 -203 -69 -50 -30 -117 -91 -128 -117
-5 -11 -13 -27 -18 -35 -20 -33 -40 -88 -55 -152 -23 -94 -24 -730 -1 -804 8
-27 15 -60 15 -74 0 -14 7 -34 15 -44 8 -11 15 -26 15 -33 0 -28 89 -138 125
-154 11 -5 40 -21 64 -34 24 -14 52 -25 61 -25 10 0 35 -8 56 -17 34 -15 77
-17 344 -17 260 0 312 3 350 17 25 9 52 17 60 17 32 0 132 62 182 112 29 29
78 113 78 135 0 10 5 24 10 29 10 10 29 154 33 249 l2 40 -190 0 -190 0 3 -56
c3 -66 -25 -162 -54 -184 -60 -46 -101 -55 -264 -55 -212 0 -275 23 -323 119
-21 45 -22 54 -22 371 l0 325 25 45 c14 24 45 58 68 75 l44 30 196 0 c179 0
200 -2 232 -20 43 -25 55 -38 80 -94 16 -34 19 -56 14 -88 -3 -24 -2 -43 2
-43 75 -3 376 -1 380 3 2 2 -2 58 -10 123 -17 147 -44 214 -118 287 -48 48
-81 69 -173 107 -117 50 -526 67 -705 31z m574 -112 c19 -9 32 -9 49 -2 28 13
72 -5 119 -49 16 -15 36 -28 43 -28 8 0 17 -9 20 -21 4 -11 20 -36 37 -55 30
-34 47 -84 48 -136 0 -21 -5 -28 -19 -28 -11 0 -23 -4 -26 -10 -7 -11 -84 -14
-109 -4 -10 4 -16 18 -16 35 0 17 -6 32 -15 35 -8 4 -15 13 -15 20 0 8 -8 17
-17 21 -10 3 -39 28 -65 54 -31 32 -52 47 -62 43 -9 -3 -24 -3 -33 1 -16 6
-17 8 -2 18 13 10 -1 12 -70 13 -47 0 -129 3 -181 6 -108 7 -139 -1 -220 -50
-99 -61 -150 -132 -169 -237 -14 -76 -14 -495 0 -588 9 -62 37 -130 59 -147 4
-3 10 -17 13 -32 5 -17 17 -30 37 -36 16 -6 30 -15 30 -21 0 -5 18 -12 41 -16
22 -4 43 -13 45 -19 3 -9 22 -11 58 -8 33 3 56 0 60 -7 4 -6 38 -11 82 -11 42
0 84 -5 95 -10 15 -8 26 -7 49 6 25 15 31 16 46 3 14 -11 18 -11 22 -1 2 7 27
28 55 46 29 18 60 42 69 52 53 58 68 79 68 98 0 12 9 36 21 55 l20 34 70 -5
c38 -3 73 -9 77 -12 3 -4 -1 -21 -11 -38 -16 -28 -16 -32 -3 -40 18 -10 21
-44 6 -53 -6 -4 -20 -25 -31 -48 -24 -47 -77 -107 -95 -107 -6 0 -23 -11 -38
-25 -14 -13 -43 -27 -64 -30 -20 -3 -50 -10 -67 -15 -58 -18 -161 -27 -265
-23 -146 6 -252 17 -269 27 -8 5 -40 8 -72 7 -31 -1 -60 3 -64 8 -10 18 -74
44 -90 37 -10 -3 -18 1 -22 12 -4 9 -15 23 -25 30 -10 7 -18 22 -18 32 0 10
-4 22 -10 25 -5 3 -10 14 -10 24 0 9 -8 35 -19 57 -10 21 -22 57 -26 79 -8 47
-8 684 1 735 8 47 32 100 50 107 16 6 20 53 4 53 -5 0 -10 5 -10 11 0 6 9 9
20 6 15 -4 20 0 20 13 0 20 49 60 73 60 9 0 19 5 22 11 4 6 19 7 36 4 22 -5
29 -3 29 8 0 36 89 46 377 41 148 -2 241 -8 257 -15z"/>
<path d="M6920 3065 c-30 -8 -67 -14 -82 -15 -44 0 -170 -59 -217 -100 -38
-34 -83 -96 -100 -139 -23 -55 -27 -330 -6 -370 8 -17 15 -39 15 -50 0 -29
107 -134 160 -157 104 -45 211 -68 405 -84 61 -6 128 -14 150 -20 22 -5 63
-10 92 -10 60 0 128 -27 163 -64 21 -24 24 -35 24 -111 0 -98 -13 -125 -84
-164 -41 -23 -48 -24 -257 -22 -207 2 -216 3 -252 25 -56 36 -75 71 -77 144
-1 34 -4 65 -7 69 -11 10 -377 9 -378 -2 -5 -40 5 -139 17 -185 50 -177 130
-255 314 -307 57 -16 105 -18 385 -18 281 0 328 2 385 19 209 59 290 151 326
370 15 94 16 118 5 175 -7 36 -15 82 -18 101 -7 42 -62 129 -106 166 -58 49
-173 89 -292 103 -38 5 -106 13 -150 19 -148 21 -260 35 -313 40 -105 9 -162
62 -162 148 0 60 29 114 76 139 34 18 57 20 228 20 167 0 195 -2 225 -19 65
-35 88 -69 100 -150 l6 -40 187 -1 c157 -1 188 1 193 13 7 19 -22 172 -44 230
-31 85 -134 178 -228 208 -113 36 -199 46 -413 50 -159 2 -229 -1 -270 -11z
m500 -107 c19 -6 49 -16 65 -23 17 -7 57 -18 90 -25 69 -14 121 -44 134 -80 6
-14 18 -37 27 -51 20 -31 12 -68 -10 -50 -11 9 -15 5 -19 -19 -8 -37 -48 -51
-76 -26 -9 9 -35 22 -57 30 -30 10 -38 18 -37 34 2 13 -5 23 -17 27 -11 4 -20
11 -20 16 0 5 -11 14 -25 19 -14 5 -25 14 -25 20 0 5 -6 10 -13 10 -15 0 -81
33 -103 51 -11 9 -23 10 -42 3 -17 -6 -66 -7 -126 -3 -79 6 -104 5 -120 -7
-11 -8 -37 -14 -58 -14 -20 0 -40 -4 -43 -10 -3 -5 -22 -10 -41 -10 -20 0 -34
-5 -34 -12 -1 -17 -31 -52 -51 -60 -9 -4 -19 -19 -22 -35 -3 -15 -11 -52 -17
-82 -13 -62 -6 -116 15 -125 8 -3 15 -12 15 -21 0 -8 5 -15 10 -15 6 0 14 -8
18 -19 9 -23 100 -94 111 -86 5 2 21 -2 37 -9 26 -13 219 -40 240 -34 5 1 25
-3 44 -10 20 -7 58 -11 85 -11 94 3 203 -15 220 -36 8 -11 15 -25 15 -32 0 -6
5 -15 12 -19 8 -5 9 0 6 14 -4 16 -2 22 9 22 26 0 82 -40 89 -63 4 -12 16 -31
28 -42 47 -46 61 -92 62 -207 0 -75 -3 -112 -12 -119 -9 -7 -10 -19 -3 -42 11
-40 -5 -60 -25 -31 -21 28 -31 10 -16 -27 13 -30 12 -33 -16 -55 -16 -13 -39
-32 -52 -43 -27 -25 -32 -26 -32 -6 0 21 -9 19 -28 -6 -23 -27 -84 -39 -220
-44 -109 -4 -113 -3 -122 18 -5 12 -9 17 -9 10 -1 -18 -57 -43 -69 -31 -7 7
-23 6 -47 -2 -27 -9 -47 -9 -80 -1 -23 6 -76 8 -116 5 -67 -5 -90 -1 -154 27
-64 27 -100 39 -116 39 -11 0 -19 7 -19 17 0 9 -7 24 -16 34 -9 10 -21 49 -27
88 -13 85 -7 94 58 97 39 3 49 -1 75 -29 16 -18 30 -36 30 -42 0 -5 14 -23 30
-39 17 -16 30 -40 30 -53 0 -25 15 -31 24 -10 4 8 10 5 22 -10 9 -13 24 -23
33 -23 9 0 35 -9 56 -21 36 -19 56 -21 220 -21 198 1 226 7 287 65 10 9 24 17
31 17 18 0 43 28 68 76 53 103 45 237 -19 297 -21 19 -46 46 -58 60 -29 35
-119 59 -234 62 -52 2 -107 7 -121 13 -15 6 -36 8 -47 5 -12 -3 -51 5 -89 17
-38 12 -69 18 -71 12 -4 -12 -79 4 -109 24 -12 8 -31 14 -41 14 -11 0 -30 8
-43 18 -13 10 -45 31 -71 46 -39 22 -48 32 -48 55 0 15 -9 38 -20 51 -18 21
-19 25 -5 46 19 30 19 43 -2 66 -14 16 -15 23 -4 53 7 21 10 52 6 77 -6 39 -3
46 24 72 17 17 31 35 31 41 0 12 126 99 145 100 6 0 20 4 32 8 70 25 505 36
583 15z"/>
<path d="M4893 3044 c-2 -7 -3 -28 -1 -49 l3 -36 570 -4 c314 -1 592 -6 619
-10 44 -7 48 -6 44 11 -5 27 -62 52 -178 78 -63 14 -151 17 -564 19 -359 1
-490 -1 -493 -9z"/>
<path d="M1195 2923 c-16 -2 -34 -9 -39 -14 -6 -5 -18 -9 -28 -9 -16 0 -73
-21 -108 -41 -8 -4 -33 -17 -55 -28 -46 -24 -136 -106 -187 -171 -40 -51 -81
-134 -109 -222 -25 -78 -28 -312 -4 -344 8 -10 15 -30 15 -44 1 -14 12 -45 25
-70 13 -25 28 -55 34 -67 10 -22 28 -45 90 -115 32 -37 113 -98 130 -98 16 0
29 -49 24 -88 -7 -49 40 -202 74 -243 7 -8 13 -21 13 -28 0 -20 87 -125 138
-168 71 -59 138 -96 232 -128 74 -25 100 -29 205 -29 106 -1 129 2 203 27 46
16 110 44 143 63 95 56 213 181 249 266 5 13 14 30 19 38 22 37 41 120 41 176
0 70 8 82 117 163 102 77 173 191 224 361 20 65 17 230 -5 314 -16 63 -24 83
-47 126 -5 8 -15 29 -22 45 -25 55 -137 173 -209 221 -39 26 -110 61 -157 77
-76 27 -100 30 -206 31 -122 1 -179 -9 -262 -45 -23 -11 -45 -23 -48 -29 -10
-16 -39 -12 -86 13 -83 44 -149 59 -264 62 -60 2 -123 1 -140 -2z m348 -95
c51 0 48 -19 -10 -83 -85 -92 -104 -119 -143 -200 -43 -90 -66 -190 -49 -211
19 -23 -21 -79 -87 -123 -34 -23 -79 -62 -100 -88 -22 -26 -46 -55 -55 -64
-24 -24 -79 -139 -79 -165 0 -13 -11 -44 -25 -70 -14 -26 -25 -53 -25 -61 0
-10 -5 -9 -18 4 -34 34 -94 131 -88 142 4 6 1 11 -7 11 -13 0 -67 73 -67 91 0
5 -9 23 -20 41 -14 24 -20 51 -20 94 0 48 -4 63 -16 68 -13 5 -14 9 -4 21 7 8
10 21 7 29 -6 15 5 96 23 165 9 38 22 63 77 156 7 11 17 30 22 43 6 12 15 22
21 22 6 0 29 17 53 38 23 21 49 42 57 45 8 4 22 11 30 16 8 5 33 17 55 27 22
11 42 22 45 25 21 24 172 40 300 32 47 -3 102 -6 123 -5z m652 -33 c50 -21 98
-43 108 -50 34 -24 137 -125 137 -135 0 -5 9 -14 20 -20 11 -6 20 -17 20 -24
0 -7 9 -24 20 -38 26 -34 50 -105 50 -153 0 -23 4 -45 9 -50 6 -6 6 -51 0
-119 -9 -109 -37 -196 -75 -234 -8 -7 -14 -22 -14 -33 0 -21 -16 -26 -23 -6
-3 9 -8 9 -18 -2 -11 -10 -11 -15 -1 -18 19 -7 14 -40 -10 -68 -16 -19 -24
-22 -35 -14 -10 9 -13 7 -13 -9 0 -25 -20 -72 -30 -72 -15 0 -30 29 -56 106
-14 43 -32 93 -40 111 -8 17 -14 35 -14 40 0 8 -49 70 -108 138 -23 26 -78 65
-92 65 -20 0 -9 -20 34 -65 58 -59 103 -116 116 -146 6 -13 18 -37 28 -54 21
-35 40 -113 41 -170 2 -48 -30 -84 -94 -108 -84 -32 -233 -37 -310 -11 -22 7
-57 15 -77 17 -24 3 -48 14 -65 32 -32 31 -72 50 -84 38 -5 -5 -10 -20 -11
-33 -3 -23 1 -25 45 -28 30 -2 50 -8 54 -18 3 -8 14 -14 25 -14 10 0 38 -8 61
-19 73 -33 177 -45 270 -31 45 6 99 18 119 25 33 12 78 11 78 -1 0 -3 -11 -27
-25 -54 -14 -27 -25 -54 -25 -61 0 -6 -9 -24 -21 -40 -11 -16 -17 -33 -14 -39
9 -14 -8 -40 -35 -53 -13 -7 -28 -24 -33 -40 -14 -42 -51 -75 -176 -159 -14
-10 -30 -19 -36 -21 -5 -2 -26 -10 -45 -17 -86 -31 -278 -42 -322 -19 -9 5
-29 9 -43 9 -15 0 -39 6 -53 14 -15 7 -51 25 -79 39 -29 13 -68 42 -86 64 -18
22 -39 37 -46 35 -21 -7 -33 21 -15 35 9 6 11 14 5 17 -5 4 -12 2 -16 -4 -9
-14 -25 -13 -25 3 0 7 -31 75 -70 152 -49 100 -66 142 -57 147 17 11 30 10 68
-6 96 -39 284 -40 386 -2 21 8 50 17 66 20 15 4 27 13 27 21 0 19 -51 20 -93
1 -82 -35 -278 -36 -352 -1 -16 7 -38 16 -48 19 -20 6 -56 79 -57 112 0 60 73
230 109 252 12 7 21 18 21 25 0 15 47 67 60 67 6 0 10 5 10 11 0 7 12 23 27
36 22 21 30 23 50 14 34 -16 45 -14 38 8 -3 10 1 24 10 31 17 14 20 51 5 66
-25 25 57 244 117 313 24 27 43 54 43 59 0 34 119 79 135 51 4 -5 18 -9 33 -9
28 0 112 -65 112 -87 0 -6 6 -18 13 -25 22 -22 57 -85 57 -101 0 -9 9 -31 19
-49 28 -49 45 -142 31 -168 -16 -30 5 -78 37 -86 38 -10 49 9 26 43 -14 18
-22 51 -26 96 -2 38 -10 74 -16 80 -6 6 -11 23 -11 38 0 61 -75 186 -175 289
-18 19 -35 44 -37 55 -3 19 3 20 99 21 57 0 106 4 110 8 5 5 44 6 88 3 62 -4
100 -13 170 -42z"/>
<path d="M4894 2861 c-2 -2 -4 -28 -4 -58 l0 -53 700 0 c461 0 700 3 700 10 0
6 -13 31 -29 57 l-29 46 -667 1 c-367 1 -669 -1 -671 -3z"/>
<path d="M5897 2658 c-8 -5 -4 -19 11 -46 12 -22 22 -49 22 -60 0 -19 6 -20
173 -21 94 -1 181 -2 192 -4 18 -2 20 5 23 61 2 44 -1 64 -10 67 -22 8 -399
10 -411 3z"/>
<path d="M4897 2653 c-12 -11 -8 -111 4 -119 7 -4 46 -5 88 -4 73 3 198 1 251
-3 24 -2 25 0 28 66 l3 67 -184 0 c-101 0 -187 -3 -190 -7z"/>
<path d="M4899 2434 c-9 -10 -11 -75 -3 -104 3 -13 31 -16 189 -16 l186 -1 -3
65 -3 64 -178 2 c-117 1 -182 -3 -188 -10z"/>
<path d="M5939 2433 c-6 -6 -9 -35 -7 -65 l3 -53 193 -1 192 0 0 65 0 66 -186
0 c-129 0 -189 -4 -195 -12z"/>
<path d="M5200 2227 c-30 -5 -110 -6 -177 -3 -135 5 -133 6 -133 -64 0 -21 5
-42 10 -45 6 -4 92 -7 190 -8 l180 -2 0 62 c0 34 -3 64 -7 66 -5 2 -33 -1 -63
-6z"/>
<path d="M5934 2221 c-9 -9 -3 -100 7 -107 6 -3 94 -7 195 -8 l184 -1 0 61 0
61 -191 -1 c-105 -1 -193 -3 -195 -5z"/>
<path d="M4900 2016 c-14 -14 -12 -92 3 -102 6 -5 92 -8 190 -6 l178 3 -3 56
-3 56 -178 1 c-101 1 -182 -3 -187 -8z"/>
<path d="M5929 2002 c-5 -13 -9 -28 -9 -33 0 -5 -6 -18 -12 -29 -8 -12 -9 -22
-3 -27 6 -5 101 -7 213 -5 l203 3 -3 56 -3 55 -189 2 c-188 1 -188 1 -197 -22z"/>
<path d="M6255 1824 c-5 -2 -314 -5 -685 -6 l-675 -3 0 -53 0 -53 675 -1 675
-1 23 46 c29 56 24 86 -13 71z"/>
<path d="M6040 1619 c-41 -4 -316 -8 -610 -7 l-535 0 0 -58 0 -59 455 2 c515
2 600 9 725 64 11 5 33 13 48 19 19 7 27 16 25 27 -4 21 -13 22 -108 12z"/>
<path d="M3282 1318 c2 -18 9 -23 28 -21 14 1 642 2 1395 2 754 -1 1444 0
1535 2 91 2 208 2 260 1 52 -1 372 -1 710 -2 338 0 632 -4 652 -9 30 -7 40 -5
53 10 10 10 14 23 10 28 -4 8 -699 11 -2326 11 l-2320 0 3 -22z"/>
<path d="M3374 1231 c-45 -11 -50 -16 -68 -70 -31 -96 -15 -218 34 -261 19
-17 37 -20 105 -20 50 0 87 5 97 13 41 33 62 97 37 112 -14 9 -46 -21 -53 -49
-10 -40 -121 -51 -157 -15 -19 19 -20 30 -17 124 1 57 6 106 10 110 11 11 85
18 120 11 22 -5 40 -17 53 -39 26 -41 49 -42 52 -2 6 72 -96 114 -213 86z"/>
<path d="M6395 1229 c-29 -7 -45 -18 -57 -40 -46 -80 10 -140 141 -152 65 -5
81 -15 81 -53 0 -36 -24 -56 -73 -61 -69 -8 -95 2 -111 42 -17 39 -43 55 -57
34 -16 -26 -9 -51 25 -85 33 -33 36 -34 118 -34 98 0 122 12 138 70 8 30 7 47
-4 73 -17 42 -23 46 -84 57 -132 25 -127 23 -130 53 -5 41 13 57 67 57 68 0
87 -8 102 -43 15 -34 28 -38 43 -14 13 21 -1 65 -27 82 -29 19 -121 27 -172
14z"/>
<path d="M4605 1224 c-8 -3 -12 -241 -6 -326 1 -5 10 -8 21 -8 20 0 20 5 18
167 -3 159 -7 178 -33 167z"/>
<path d="M5073 1223 c-10 -3 -13 -46 -13 -163 0 -189 -7 -180 133 -180 l94 0
36 35 37 36 0 107 c-1 114 -8 134 -57 161 -21 11 -205 15 -230 4z m230 -75
c20 -46 17 -156 -6 -191 -17 -26 -21 -27 -102 -27 l-85 0 0 125 0 125 89 0 89
0 15 -32z"/>
<path d="M6883 1214 c-3 -8 1 -22 9 -31 12 -12 20 -13 37 -4 25 14 28 36 5 45
-26 10 -44 7 -51 -10z"/>
<path d="M4679 1213 c0 -5 -1 -77 -1 -162 0 -118 3 -156 14 -162 29 -19 33 0
36 164 l2 167 -25 0 c-14 0 -25 -3 -26 -7z"/>
<path d="M5660 1171 c0 -11 -10 -27 -22 -36 l-23 -16 23 -19 c20 -16 22 -27
22 -104 0 -80 2 -87 24 -102 29 -18 71 -15 71 6 0 8 -10 19 -23 26 -33 16 -33
17 -39 93 -5 71 -2 78 31 72 11 -2 36 19 36 30 0 5 -15 12 -32 17 -23 6 -34
15 -36 30 -4 27 -32 29 -32 3z"/>
<path d="M3676 1133 c-40 -10 -55 -44 -56 -119 0 -70 1 -73 35 -103 29 -25 45
-31 81 -31 37 0 51 5 76 31 30 29 30 32 26 106 -5 68 -8 79 -32 100 -27 23
-79 29 -130 16z m106 -60 c23 -20 24 -90 2 -121 -21 -31 -79 -30 -105 1 -23
28 -25 90 -2 117 22 25 79 27 105 3z"/>
<path d="M3925 1131 l-40 -6 -3 -116 c-2 -95 0 -118 12 -122 29 -11 39 19 32
94 -6 60 -5 74 10 90 22 25 55 24 77 -2 19 -21 48 -22 54 -2 3 7 -9 26 -25 43
-31 31 -42 33 -117 21z"/>
<path d="M4101 1126 c-8 -9 -11 -53 -9 -127 3 -106 4 -114 23 -114 18 0 20 7
20 88 0 99 11 117 71 117 40 0 44 -10 44 -116 l0 -85 28 3 27 3 -4 85 c-4 112
-19 147 -65 155 -20 4 -48 3 -64 -3 -17 -6 -35 -6 -44 -1 -10 6 -20 4 -27 -5z"/>
<path d="M4391 1134 c-41 -19 -51 -43 -51 -123 0 -76 1 -80 31 -105 22 -19 42
-26 72 -26 50 0 107 35 107 67 0 33 -17 37 -44 9 -36 -35 -77 -42 -105 -17
-14 12 -21 28 -19 43 3 21 9 23 83 28 l80 5 2 35 c4 53 -24 80 -89 85 -29 3
-59 2 -67 -1z m108 -58 c23 -24 3 -36 -60 -36 -65 0 -78 15 -36 45 25 18 73
13 96 -9z"/>
<path d="M5446 1133 c-23 -6 -56 -44 -49 -55 6 -11 51 -10 55 0 2 5 17 12 35
15 23 5 38 1 57 -14 36 -28 25 -39 -41 -39 -70 0 -109 -22 -117 -65 -8 -43 -1
-59 38 -80 25 -14 43 -16 77 -11 24 5 56 8 72 7 l27 0 0 97 c-1 120 -13 141
-87 147 -26 2 -57 1 -67 -2z m114 -157 c0 -46 -107 -72 -132 -33 -23 36 7 55
85 56 43 1 47 -1 47 -23z"/>
<path d="M5842 1133 c-29 -6 -51 -48 -34 -65 9 -9 16 -7 30 5 23 21 95 23 112
2 19 -23 2 -35 -52 -35 -105 0 -156 -72 -95 -133 22 -22 59 -26 157 -16 l35 4
3 97 c3 92 2 98 -23 122 -26 26 -66 32 -133 19z m112 -149 c16 -41 -67 -77
-111 -49 -12 9 -23 21 -23 29 0 33 122 51 134 20z"/>
<path d="M6674 1117 c-27 -24 -29 -29 -29 -104 0 -99 20 -124 100 -131 44 -4
55 -1 83 23 21 18 32 35 30 48 -4 30 -22 31 -49 3 -27 -29 -81 -35 -105 -12
-17 18 -19 117 -2 134 22 22 80 14 110 -15 24 -23 30 -25 38 -13 14 21 12 32
-9 59 -15 20 -30 25 -78 29 -52 4 -63 1 -89 -21z"/>
<path d="M7030 1133 c-42 -16 -50 -34 -50 -120 0 -103 15 -124 95 -131 44 -4
55 -1 83 23 18 15 32 33 32 40 0 24 -21 28 -48 8 -44 -32 -76 -36 -106 -12
-17 14 -26 29 -24 43 3 19 10 21 85 24 80 3 83 4 89 29 10 39 -21 89 -58 97
-36 7 -77 7 -98 -1z m101 -54 c20 -17 21 -22 9 -30 -21 -13 -122 -7 -127 8 -5
14 43 42 73 43 12 0 32 -9 45 -21z"/>
<path d="M7298 1134 c-5 -4 -24 -7 -43 -6 l-35 1 0 -119 c0 -65 4 -121 8 -124
4 -2 14 -1 22 4 11 7 14 27 11 85 -3 69 -1 77 21 95 29 25 70 25 91 2 13 -14
17 -38 17 -99 0 -60 4 -82 14 -86 23 -9 26 2 26 102 -1 116 -15 141 -83 148
-23 3 -45 2 -49 -3z"/>
<path d="M7506 1118 c-50 -42 -49 -166 2 -213 53 -49 172 -22 172 40 0 36 -21
42 -45 12 -26 -34 -88 -38 -105 -8 -14 27 -13 114 2 129 21 21 85 15 102 -9
17 -25 46 -19 46 9 0 38 -25 55 -87 60 -52 4 -63 1 -87 -20z"/>
<path d="M7763 1130 c-33 -13 -43 -42 -43 -123 0 -72 1 -76 31 -101 56 -47
140 -31 174 34 13 25 13 29 0 34 -21 8 -43 -3 -50 -25 -5 -15 -16 -19 -51 -19
-37 0 -46 4 -56 24 -20 45 -5 58 65 56 84 -3 85 -3 97 19 14 27 -13 89 -46
101 -31 12 -91 12 -121 0z m111 -50 c5 -5 6 -16 3 -24 -5 -12 -20 -16 -56 -16
-27 0 -52 4 -55 9 -9 14 4 39 22 44 21 6 74 -2 86 -13z"/>
<path d="M6890 1010 c0 -120 0 -121 22 -118 22 3 23 6 22 118 0 110 -1 115
-22 118 -22 3 -22 1 -22 -118z"/>
</g>
</svg>
