<?xml version="1.0" standalone="no"?>
<!DOCTYPE svg PUBLIC "-//W3C//DTD SVG 20010904//EN"
 "http://www.w3.org/TR/2001/REC-SVG-20010904/DTD/svg10.dtd">
<svg version="1.0" xmlns="http://www.w3.org/2000/svg"
 width="61.000000pt" height="59.000000pt" viewBox="0 0 61.000000 59.000000"
 preserveAspectRatio="xMidYMid meet">
<metadata>
Created by potrace 1.10, written by Peter Selinger 2001-2011
</metadata>
<g transform="translate(0.000000,59.000000) scale(0.100000,-0.100000)"
fill="#c51a1a" stroke="none">
<path d="M270 567 c-36 -18 -48 -61 -28 -95 38 -63 120 -44 126 29 5 59 -45
93 -98 66z m59 -46 c13 -24 -9 -57 -33 -48 -23 9 -31 34 -16 52 17 20 37 19
49 -4z"/>
<path d="M142 434 l-22 -25 22 -30 c26 -35 88 -74 133 -83 47 -10 123 18 167
61 43 42 46 55 18 83 -23 23 -40 26 -40 8 -1 -20 -69 -67 -105 -74 -43 -8 -95
17 -119 56 -20 35 -24 36 -54 4z m279 -58 c-49 -59 -182 -60 -231 -1 -8 10 5
6 38 -11 59 -31 108 -27 163 11 36 24 50 25 30 1z"/>
<path d="M46 278 c-3 -7 -7 -25 -10 -41 -6 -27 -6 -27 32 -21 50 8 101 -15
126 -57 14 -24 17 -44 13 -85 l-6 -54 40 0 39 0 0 58 c0 83 -39 158 -99 189
-49 25 -129 31 -135 11z"/>
<path d="M460 278 c-19 -5 -47 -19 -62 -30 -50 -35 -85 -130 -72 -196 6 -29
10 -32 46 -32 36 0 39 2 31 23 -31 89 50 189 141 172 32 -7 33 -6 28 27 -3 18
-10 36 -16 40 -15 10 -53 8 -96 -4z m-41 -68 c-8 -5 -24 -27 -34 -50 -20 -45
-31 -48 -15 -4 13 33 51 77 59 68 3 -3 -1 -9 -10 -14z"/>
<path d="M41 134 c-24 -30 -26 -46 -10 -77 16 -29 28 -37 61 -37 36 0 71 45
63 80 -16 63 -77 81 -114 34z m68 -28 c15 -18 3 -46 -20 -46 -22 0 -34 22 -25
45 7 19 30 19 45 1z"/>
<path d="M477 132 c-38 -42 -10 -112 45 -112 30 0 68 38 68 68 0 52 -79 82
-113 44z m70 -56 c-4 -9 -16 -16 -27 -16 -15 0 -20 7 -20 24 0 13 6 26 13 29
18 7 41 -19 34 -37z"/>
</g>
</svg>
